<svg width="50" height="50" viewBox="0 0 50 50" fill="none" xmlns="http://www.w3.org/2000/svg">
<rect width="50" height="50" rx="10" fill="#5BB5A2"/>
<path d="M22.1154 37.4688C20.8435 37.4688 19.7307 37.2304 18.7768 36.7534C17.8229 36.2765 17.0507 35.6065 16.4602 34.7434L15.9832 37.06H12.0995V12.5312H16.4602V22.5812C17.0052 21.8317 17.7207 21.1731 18.6064 20.6053C19.5149 20.0375 20.6846 19.7536 22.1154 19.7536C23.7052 19.7536 25.1247 20.1397 26.3739 20.9119C27.623 21.6841 28.611 22.7402 29.3378 24.0802C30.0646 25.4202 30.428 26.9419 30.428 28.6453C30.428 30.3487 30.0646 31.8704 29.3378 33.2104C28.611 34.5277 27.623 35.5724 26.3739 36.3446C25.1247 37.0941 23.7052 37.4688 22.1154 37.4688ZM21.1956 33.6532C22.581 33.6532 23.728 33.1877 24.6364 32.2565C25.5449 31.3253 25.9991 30.1215 25.9991 28.6453C25.9991 27.169 25.5449 25.9539 24.6364 25C23.728 24.0461 22.581 23.5692 21.1956 23.5692C19.7874 23.5692 18.6291 24.0461 17.7207 25C16.8349 25.9312 16.392 27.1349 16.392 28.6112C16.392 30.0875 16.8349 31.3026 17.7207 32.2565C18.6291 33.1877 19.7874 33.6532 21.1956 33.6532Z" fill="white"/>
<path d="M35.1751 37.2985C34.3802 37.2985 33.7215 37.0487 33.1992 36.549C32.6995 36.0493 32.4497 35.4475 32.4497 34.7434C32.4497 34.0166 32.6995 33.4034 33.1992 32.9038C33.7215 32.4041 34.3802 32.1543 35.1751 32.1543C35.97 32.1543 36.6173 32.4041 37.117 32.9038C37.6393 33.4034 37.9005 34.0166 37.9005 34.7434C37.9005 35.4475 37.6393 36.0493 37.117 36.549C36.6173 37.0487 35.97 37.2985 35.1751 37.2985Z" fill="white"/>
</svg>
